# xmcd
#
# Track frame offsets:
#	150
#	19086
#	30958
#	45214
#	63370
#	78444
#	92803
#	107174
#	118497
#	142893
#	157833
#	173930
#	191441
#
# Disc length: 2677 seconds
#
# Revision: 1
# Processed by: cddbd v1.5PL3 Copyright (c) Steve Scherf et al.
# Submitted via: audiograbber 1.83.01
#
DISCID=9b0a730d
DTITLE=Catman - Till The Cows Come Home
DYEAR=1900
DGENRE=Country
TTITLE0=Honky Tonkin' Till The Cows Come Home
TTITLE1=Blues Attack
TTITLE2=Every Morning
TTITLE3=Westworld
TTITLE4=Baby With The Jealous Mind
TTITLE5=Lucky Guy
TTITLE6=The Water Is Wide
TTITLE7=Once In A Lifetime
TTITLE8=Hang On For The Ride
TTITLE9=Got Myself A Pistol
TTITLE10=Your Name Means Trouble To Me
TTITLE11=Memphis, Tennessee
TTITLE12=Harmonica Man
EXTD=
EXTT0=
EXTT1=
EXTT2=
EXTT3=
EXTT4=
EXTT5=
EXTT6=
EXTT7=
EXTT8=
EXTT9=
EXTT10=
EXTT11=
EXTT12=
PLAYORDER=
